<?xml version="1.0" encoding="utf-8"?>
<!-- Svg Vector Icons : http://www.onlinewebfonts.com/icon -->
<!DOCTYPE svg PUBLIC "-//W3C//DTD SVG 1.1//EN" "http://www.w3.org/Graphics/SVG/1.1/DTD/svg11.dtd">
<svg version="1.1" xmlns="http://www.w3.org/2000/svg" xmlns:xlink="http://www.w3.org/1999/xlink" x="0px" y="0px" viewBox="0 0 256 256" enable-background="new 0 0 256 256" xml:space="preserve">
<metadata> Svg Vector Icons : http://www.onlinewebfonts.com/icon </metadata>
<g><g><path fill="#000000" d="M88.7,30.2h-54C21.1,30.2,10,41.3,10,54.9v54c0,13.6,11.1,24.7,24.7,24.7h54c13.6,0,24.7-11.1,24.7-24.7v-54C113.4,41.3,102.3,30.2,88.7,30.2z M99.9,108.9c0,6.2-5,11.2-11.2,11.2h-54c-6.2,0-11.2-5.1-11.2-11.2v-54c0-6.2,5-11.2,11.2-11.2h54c6.2,0,11.2,5,11.2,11.2V108.9z"/><path fill="#000000" d="M88.7,142.6h-54c-13.6,0-24.7,11.1-24.7,24.7v54c0,13.6,11.1,24.7,24.7,24.7h54c13.6,0,24.7-11.1,24.7-24.7v-54C113.4,153.7,102.3,142.6,88.7,142.6z M99.9,221.3c0,6.2-5,11.2-11.2,11.2h-54c-6.2,0-11.2-5.1-11.2-11.2v-54c0-6.2,5-11.2,11.2-11.2h54c6.2,0,11.2,5,11.2,11.2V221.3z"/><path fill="#000000" d="M238.8,55.4l-38.2-38.2c-4.6-4.6-10.9-7.2-17.5-7.2c-6.6,0-12.8,2.6-17.5,7.2l-38.2,38.2c-4.6,4.6-7.2,10.9-7.2,17.5c0,6.6,2.6,12.8,7.2,17.5l38.1,38.1c4.6,4.6,10.9,7.2,17.5,7.2c6.6,0,12.8-2.6,17.5-7.2l38.2-38.1C248.4,80.7,248.4,65,238.8,55.4z M229.2,80.8L191.1,119c-4.2,4.2-11.7,4.2-15.9,0L137,80.8c-2.1-2.1-3.3-4.9-3.3-7.9s1.2-5.9,3.3-7.9l38.2-38.2c2.1-2.1,4.9-3.3,7.9-3.3c3,0,5.9,1.2,7.9,3.3l38.1,38.1C233.6,69.3,233.6,76.4,229.2,80.8z"/><path fill="#000000" d="M201.1,142.6h-54c-13.6,0-24.7,11.1-24.7,24.7v54c0,13.6,11.1,24.7,24.7,24.7h54c13.6,0,24.7-11.1,24.7-24.7v-54C225.8,153.7,214.7,142.6,201.1,142.6z M212.4,221.3c0,6.2-5,11.2-11.2,11.2h-54c-6.2,0-11.2-5-11.2-11.2v-54c0-6.2,5-11.2,11.2-11.2h54c6.2,0,11.2,5,11.2,11.2V221.3z"/></g></g>
</svg>